<?xml version="1.0" standalone="no"?>
<!DOCTYPE svg PUBLIC "-//W3C//DTD SVG 20010904//EN"
 "http://www.w3.org/TR/2001/REC-SVG-20010904/DTD/svg10.dtd">
<svg version="1.0" xmlns="http://www.w3.org/2000/svg"
 width="160.000000pt" height="160.000000pt" viewBox="0 0 160.000000 160.000000"
 preserveAspectRatio="xMidYMid meet">
<metadata>
Created by potrace 1.14, written by Peter Selinger 2001-2017
</metadata>
<g transform="translate(0.000000,160.000000) scale(0.100000,-0.100000)"
fill="#000000" stroke="none">
<path d="M899 1596 c-2 -2 -24 -7 -49 -10 -130 -17 -250 -67 -302 -124 -43
-48 -52 -83 -46 -189 3 -74 6 -82 51 -149 l47 -70 1 -180 c0 -98 0 -204 0
-236 l-1 -56 -52 -30 c-29 -16 -90 -66 -135 -111 -46 -45 -84 -82 -85 -82 -2
-1 -60 -4 -130 -8 -127 -6 -128 -6 -160 -39 -29 -29 -33 -39 -33 -87 0 -48 4
-58 33 -87 l32 -33 149 0 148 0 73 37 72 37 26 -30 c34 -41 89 -75 159 -98
121 -40 167 -46 363 -45 145 0 190 4 263 22 111 28 189 65 232 113 40 45 48
81 43 186 -3 74 -6 82 -51 148 l-47 70 0 262 c0 144 3 263 8 265 8 3 58 78 79
117 18 32 17 183 -1 224 -34 79 -130 131 -321 173 -32 7 -360 16 -366 10z"/>
</g>
</svg>
